<svg width="24" height="25" viewBox="0 0 24 25" fill="none" xmlns="http://www.w3.org/2000/svg">
<g clip-path="url(#clip0_434_1181)">
<path d="M15.0504 5.27832C16.0272 5.46889 16.9248 5.94658 17.6285 6.65026C18.3322 7.35393 18.8099 8.25159 19.0004 9.22832M15.0504 1.27832C17.0797 1.50376 18.972 2.4125 20.4167 3.85533C21.8613 5.29816 22.7724 7.18933 23.0004 9.21832M22.0004 17.1983V20.1983C22.0016 20.4768 21.9445 20.7525 21.8329 21.0077C21.7214 21.2628 21.5577 21.4919 21.3525 21.6802C21.1473 21.8685 20.905 22.0118 20.6412 22.101C20.3773 22.1902 20.0978 22.2234 19.8204 22.1983C16.7433 21.864 13.7874 20.8125 11.1904 19.1283C8.77425 17.593 6.72576 15.5445 5.19042 13.1283C3.5004 10.5195 2.44866 7.54931 2.12042 4.45832C2.09543 4.18179 2.1283 3.90308 2.21692 3.63994C2.30555 3.37681 2.44799 3.13501 2.63519 2.92994C2.82238 2.72487 3.05023 2.56103 3.30421 2.44884C3.5582 2.33665 3.83276 2.27858 4.11042 2.27832H7.11042C7.59573 2.27354 8.06621 2.4454 8.43418 2.76185C8.80215 3.07831 9.0425 3.51777 9.11042 3.99832C9.23704 4.95839 9.47187 5.90105 9.81042 6.80832C9.94497 7.16624 9.97408 7.55524 9.89433 7.9292C9.81457 8.30317 9.62928 8.64643 9.36042 8.91832L8.09042 10.1883C9.51398 12.6919 11.5869 14.7648 14.0904 16.1883L15.3604 14.9183C15.6323 14.6495 15.9756 14.4642 16.3495 14.3844C16.7235 14.3047 17.1125 14.3338 17.4704 14.4683C18.3777 14.8069 19.3204 15.0417 20.2804 15.1683C20.7662 15.2369 21.2098 15.4815 21.527 15.8558C21.8441 16.2301 22.0126 16.7079 22.0004 17.1983Z" stroke="#0F172A" stroke-width="2" stroke-linecap="round" stroke-linejoin="round"/>
</g>
<defs>
<clipPath id="clip0_434_1181">
<rect width="24" height="24" fill="white" transform="translate(0 0.27832)"/>
</clipPath>
</defs>
</svg>
